<svg width="23" height="23" viewBox="0 0 23 23" fill="none" xmlns="http://www.w3.org/2000/svg">
<path d="M21.4835 12.6531C22.3119 12.6617 22.9903 11.997 22.9989 11.1687C23.0074 10.3403 22.3428 9.66182 21.5144 9.65328L21.4989 11.1532L21.4835 12.6531ZM0.450331 9.87549C-0.141464 10.4552 -0.151254 11.4049 0.428463 11.9967L9.87549 21.6405C10.4552 22.2323 11.4049 22.2421 11.9967 21.6624C12.5885 21.0827 12.5983 20.133 12.0186 19.5412L3.62121 10.9689L12.1935 2.57153C12.7853 1.99182 12.7951 1.04212 12.2154 0.450326C11.6357 -0.141469 10.686 -0.151259 10.0942 0.428458L0.450331 9.87549ZM21.4989 11.1532L21.5144 9.65328L1.51546 9.4471L1.5 10.947L1.48454 12.4469L21.4835 12.6531L21.4989 11.1532Z" fill="#24367D"/>
</svg>
