<svg width="47" height="47" viewBox="0 0 47 47" fill="none" xmlns="http://www.w3.org/2000/svg">
<path d="M9.2072 41.8388L1.71694 45.3343C1.2938 45.5318 0.854944 45.0929 1.05241 44.6698L4.54787 37.1795L34.48 7.24738C34.6753 7.05212 34.9918 7.05212 35.1871 7.24738L39.1393 11.1996C39.3346 11.3949 39.3346 11.7115 39.1393 11.9067L9.2072 41.8388ZM4.54787 37.1795L9.2072 41.8388M45.2403 5.09869L41.288 1.14646C41.0928 0.951199 40.7762 0.951199 40.5809 1.14646L37.6551 4.07223C37.4599 4.26749 37.4599 4.58407 37.6551 4.77934L41.6074 8.73157C41.8026 8.92683 42.1192 8.92683 42.3145 8.73157L45.2403 5.8058C45.4355 5.61054 45.4355 5.29395 45.2403 5.09869Z" stroke="white" stroke-width="2"/>
</svg>
