<svg width="50" height="50" viewBox="0 0 50 50" fill="none" xmlns="http://www.w3.org/2000/svg">
<path d="M24.5245 1.46352C24.6741 1.00287 25.3259 1.00287 25.4755 1.46353L30.5006 16.9291C30.5675 17.1351 30.7595 17.2746 30.9761 17.2746H47.2376C47.7219 17.2746 47.9233 17.8944 47.5315 18.1791L34.3757 27.7373C34.2004 27.8646 34.1271 28.0903 34.194 28.2963L39.2191 43.7619C39.3688 44.2226 38.8415 44.6056 38.4497 44.3209L25.2939 34.7627C25.1186 34.6354 24.8814 34.6354 24.7061 34.7627L11.5503 44.3209C11.1585 44.6056 10.6312 44.2226 10.7809 43.7619L15.806 28.2963C15.8729 28.0903 15.7996 27.8646 15.6243 27.7373L2.46853 18.1791C2.07668 17.8944 2.27807 17.2746 2.76243 17.2746H19.0239C19.2405 17.2746 19.4325 17.1351 19.4994 16.9291L24.5245 1.46352Z" stroke="white" stroke-width="2"/>
</svg>
