<svg width="35" height="45" viewBox="0 0 35 45" fill="none" xmlns="http://www.w3.org/2000/svg">
<path d="M0.138489 4.90909H11.2142M34.0173 4.90909H22.29M11.2142 4.90909L12.2894 1.68377C12.4255 1.27543 12.8076 1 13.238 1H19.7174C20.0962 1 20.4425 1.214 20.6119 1.55279L22.29 4.90909M11.2142 4.90909H22.29M33.1885 11.2733L28.2841 43.1521C28.209 43.6399 27.7893 44 27.2957 44H8.13117C7.6517 44 7.23971 43.6597 7.14916 43.1888L1.01863 11.3101C0.900027 10.6933 1.37261 10.1212 2.00063 10.1212H32.2001C32.813 10.1212 33.2817 10.6675 33.1885 11.2733Z" stroke="white" stroke-width="2"/>
<path d="M8.60819 15.3333L12.5173 40.0909M26.1991 15.3333L22.29 40.0909M17.7294 39.776V14.9464" stroke="white" stroke-width="2"/>
</svg>
